<svg width="240" height="38" viewBox="0 0 240 38" fill="none" xmlns="http://www.w3.org/2000/svg">
<g filter="url(#filter0_dd_321_419)">
<path fill-rule="evenodd" clip-rule="evenodd" d="M6.08154 2C3.8724 2 2.08154 3.79086 2.08154 6V30C2.08154 32.2091 3.8724 34 6.08154 34H233.227C235.436 34 237.227 32.2091 237.227 30V6C237.227 3.79086 235.436 2 233.227 2H6.08154Z" fill="url(#paint0_linear_321_419)"/>
</g>
<path d="M63.1642 15.825C64.0142 15.825 64.6992 15.96 65.2192 16.23C65.7392 16.49 65.9992 16.84 65.9992 17.28C65.9992 17.5 65.9342 17.695 65.8042 17.865C65.6742 18.025 65.5042 18.105 65.2942 18.105C65.1342 18.105 65.0042 18.085 64.9042 18.045C64.8042 17.995 64.7042 17.935 64.6042 17.865C64.5142 17.785 64.4242 17.72 64.3342 17.67C64.2342 17.62 64.0842 17.575 63.8842 17.535C63.6942 17.495 63.5392 17.475 63.4192 17.475C62.6692 17.475 62.0792 17.71 61.6492 18.18C61.2292 18.64 61.0192 19.245 61.0192 19.995C61.0192 20.715 61.2342 21.315 61.6642 21.795C62.0942 22.265 62.6442 22.5 63.3142 22.5C63.8042 22.5 64.1692 22.44 64.4092 22.32C64.4692 22.29 64.5492 22.24 64.6492 22.17C64.7592 22.09 64.8592 22.03 64.9492 21.99C65.0392 21.95 65.1492 21.93 65.2792 21.93C65.5292 21.93 65.7242 22.01 65.8642 22.17C66.0142 22.33 66.0892 22.535 66.0892 22.785C66.0892 23.025 65.9492 23.25 65.6692 23.46C65.3892 23.67 65.0192 23.84 64.5592 23.97C64.0992 24.09 63.6092 24.15 63.0892 24.15C62.3192 24.15 61.6392 23.97 61.0492 23.61C60.4692 23.25 60.0192 22.755 59.6992 22.125C59.3792 21.485 59.2192 20.775 59.2192 19.995C59.2192 19.185 59.3842 18.465 59.7142 17.835C60.0542 17.205 60.5242 16.715 61.1242 16.365C61.7242 16.005 62.4042 15.825 63.1642 15.825ZM71.5589 15.825C71.8589 15.825 72.1089 15.91 72.3089 16.08C72.5189 16.25 72.6239 16.45 72.6239 16.68C72.6239 16.99 72.5439 17.225 72.3839 17.385C72.2239 17.535 72.0339 17.61 71.8139 17.61C71.6639 17.61 71.4939 17.575 71.3039 17.505C71.2739 17.495 71.2039 17.475 71.0939 17.445C70.9939 17.415 70.8839 17.4 70.7639 17.4C70.5039 17.4 70.2539 17.48 70.0139 17.64C69.7739 17.8 69.5739 18.045 69.4139 18.375C69.2639 18.695 69.1889 19.08 69.1889 19.53V23.085C69.1889 23.345 69.1039 23.565 68.9339 23.745C68.7639 23.915 68.5489 24 68.2889 24C68.0289 24 67.8139 23.915 67.6439 23.745C67.4739 23.565 67.3889 23.345 67.3889 23.085V16.89C67.3889 16.63 67.4739 16.415 67.6439 16.245C67.8139 16.065 68.0289 15.975 68.2889 15.975C68.5489 15.975 68.7639 16.065 68.9339 16.245C69.1039 16.415 69.1889 16.63 69.1889 16.89V17.085C69.4189 16.675 69.7489 16.365 70.1789 16.155C70.6089 15.935 71.0689 15.825 71.5589 15.825ZM75.5878 23.085C75.5878 23.345 75.5028 23.565 75.3328 23.745C75.1628 23.915 74.9478 24 74.6878 24C74.4278 24 74.2128 23.915 74.0428 23.745C73.8728 23.565 73.7878 23.345 73.7878 23.085V16.89C73.7878 16.63 73.8728 16.415 74.0428 16.245C74.2128 16.065 74.4278 15.975 74.6878 15.975C74.9478 15.975 75.1628 16.065 75.3328 16.245C75.5028 16.415 75.5878 16.63 75.5878 16.89V23.085ZM74.6728 15C74.3328 15 74.0928 14.945 73.9528 14.835C73.8128 14.725 73.7428 14.53 73.7428 14.25V13.965C73.7428 13.685 73.8178 13.49 73.9678 13.38C74.1178 13.27 74.3578 13.215 74.6878 13.215C75.0378 13.215 75.2828 13.27 75.4228 13.38C75.5628 13.49 75.6328 13.685 75.6328 13.965V14.25C75.6328 14.54 75.5578 14.74 75.4078 14.85C75.2678 14.95 75.0228 15 74.6728 15ZM83.9328 15.825C84.1928 15.825 84.4078 15.91 84.5778 16.08C84.7478 16.25 84.8328 16.47 84.8328 16.74V23.085C84.8328 23.345 84.7478 23.565 84.5778 23.745C84.4078 23.915 84.1928 24 83.9328 24C83.6728 24 83.4578 23.915 83.2878 23.745C83.1278 23.575 83.0428 23.36 83.0328 23.1C82.7828 23.39 82.4428 23.64 82.0128 23.85C81.5928 24.05 81.1478 24.15 80.6778 24.15C79.9878 24.15 79.3628 23.975 78.8028 23.625C78.2428 23.265 77.7978 22.77 77.4678 22.14C77.1478 21.51 76.9878 20.795 76.9878 19.995C76.9878 19.195 77.1478 18.48 77.4678 17.85C77.7878 17.21 78.2228 16.715 78.7728 16.365C79.3328 16.005 79.9478 15.825 80.6178 15.825C81.0978 15.825 81.5478 15.915 81.9678 16.095C82.3878 16.265 82.7428 16.485 83.0328 16.755V16.74C83.0328 16.48 83.1178 16.265 83.2878 16.095C83.4578 15.915 83.6728 15.825 83.9328 15.825ZM80.9028 22.5C81.5528 22.5 82.0828 22.265 82.4928 21.795C82.9028 21.315 83.1078 20.715 83.1078 19.995C83.1078 19.275 82.9028 18.675 82.4928 18.195C82.0828 17.715 81.5528 17.475 80.9028 17.475C80.2628 17.475 79.7378 17.715 79.3278 18.195C78.9178 18.675 78.7128 19.275 78.7128 19.995C78.7128 20.715 78.9128 21.315 79.3128 21.795C79.7228 22.265 80.2528 22.5 80.9028 22.5ZM90.9535 15.825C91.2535 15.825 91.5035 15.91 91.7035 16.08C91.9135 16.25 92.0185 16.45 92.0185 16.68C92.0185 16.99 91.9385 17.225 91.7785 17.385C91.6185 17.535 91.4285 17.61 91.2085 17.61C91.0585 17.61 90.8885 17.575 90.6985 17.505C90.6685 17.495 90.5985 17.475 90.4885 17.445C90.3885 17.415 90.2785 17.4 90.1585 17.4C89.8985 17.4 89.6485 17.48 89.4085 17.64C89.1685 17.8 88.9685 18.045 88.8085 18.375C88.6585 18.695 88.5835 19.08 88.5835 19.53V23.085C88.5835 23.345 88.4985 23.565 88.3285 23.745C88.1585 23.915 87.9435 24 87.6835 24C87.4235 24 87.2085 23.915 87.0385 23.745C86.8685 23.565 86.7835 23.345 86.7835 23.085V16.89C86.7835 16.63 86.8685 16.415 87.0385 16.245C87.2085 16.065 87.4235 15.975 87.6835 15.975C87.9435 15.975 88.1585 16.065 88.3285 16.245C88.4985 16.415 88.5835 16.63 88.5835 16.89V17.085C88.8135 16.675 89.1435 16.365 89.5735 16.155C90.0035 15.935 90.4635 15.825 90.9535 15.825ZM101.781 15.825C102.801 15.825 103.506 16.13 103.896 16.74C104.286 17.34 104.481 18.175 104.481 19.245V23.085C104.481 23.345 104.396 23.565 104.226 23.745C104.056 23.915 103.841 24 103.581 24C103.321 24 103.106 23.915 102.936 23.745C102.766 23.565 102.681 23.345 102.681 23.085V19.245C102.681 18.695 102.566 18.265 102.336 17.955C102.106 17.635 101.711 17.475 101.151 17.475C100.571 17.475 100.116 17.645 99.7865 17.985C99.4565 18.315 99.2915 18.735 99.2915 19.245V23.085C99.2915 23.345 99.2065 23.565 99.0365 23.745C98.8665 23.915 98.6515 24 98.3915 24C98.1315 24 97.9165 23.915 97.7465 23.745C97.5765 23.565 97.4915 23.345 97.4915 23.085V16.89C97.4915 16.63 97.5765 16.415 97.7465 16.245C97.9165 16.065 98.1315 15.975 98.3915 15.975C98.6515 15.975 98.8665 16.065 99.0365 16.245C99.2065 16.415 99.2915 16.63 99.2915 16.89V17.145C99.5615 16.785 99.9115 16.475 100.341 16.215C100.781 15.955 101.261 15.825 101.781 15.825ZM114.137 19.995C114.137 20.795 113.957 21.515 113.597 22.155C113.237 22.785 112.742 23.275 112.112 23.625C111.492 23.975 110.807 24.15 110.057 24.15C109.297 24.15 108.607 23.975 107.987 23.625C107.367 23.275 106.877 22.785 106.517 22.155C106.157 21.515 105.977 20.795 105.977 19.995C105.977 19.195 106.157 18.48 106.517 17.85C106.877 17.21 107.367 16.715 107.987 16.365C108.607 16.005 109.297 15.825 110.057 15.825C110.807 15.825 111.492 16.005 112.112 16.365C112.742 16.715 113.237 17.21 113.597 17.85C113.957 18.48 114.137 19.195 114.137 19.995ZM112.337 19.995C112.337 19.505 112.232 19.07 112.022 18.69C111.822 18.3 111.547 18 111.197 17.79C110.857 17.58 110.477 17.475 110.057 17.475C109.637 17.475 109.252 17.58 108.902 17.79C108.562 18 108.287 18.3 108.077 18.69C107.877 19.07 107.777 19.505 107.777 19.995C107.777 20.485 107.877 20.92 108.077 21.3C108.287 21.68 108.562 21.975 108.902 22.185C109.252 22.395 109.637 22.5 110.057 22.5C110.477 22.5 110.857 22.395 111.197 22.185C111.547 21.975 111.822 21.68 112.022 21.3C112.232 20.92 112.337 20.485 112.337 19.995ZM121.733 15.99C121.973 15.99 122.173 16.07 122.333 16.23C122.493 16.38 122.573 16.57 122.573 16.8C122.573 16.92 122.533 17.07 122.453 17.25L119.648 23.43C119.578 23.6 119.473 23.735 119.333 23.835C119.203 23.935 119.053 23.99 118.883 24L118.748 24.015C118.578 24.015 118.418 23.965 118.268 23.865C118.128 23.755 118.018 23.61 117.938 23.43L115.148 17.25C115.078 17.09 115.043 16.93 115.043 16.77C115.043 16.57 115.128 16.39 115.298 16.23C115.468 16.06 115.678 15.975 115.928 15.975C116.118 15.975 116.293 16.025 116.453 16.125C116.613 16.225 116.733 16.365 116.813 16.545L118.883 21.285L120.938 16.56C121.018 16.37 121.128 16.225 121.268 16.125C121.408 16.025 121.563 15.98 121.733 15.99ZM131.627 19.995C131.627 20.795 131.447 21.515 131.087 22.155C130.727 22.785 130.232 23.275 129.602 23.625C128.982 23.975 128.297 24.15 127.547 24.15C126.787 24.15 126.097 23.975 125.477 23.625C124.857 23.275 124.367 22.785 124.007 22.155C123.647 21.515 123.467 20.795 123.467 19.995C123.467 19.195 123.647 18.48 124.007 17.85C124.367 17.21 124.857 16.715 125.477 16.365C126.097 16.005 126.787 15.825 127.547 15.825C128.297 15.825 128.982 16.005 129.602 16.365C130.232 16.715 130.727 17.21 131.087 17.85C131.447 18.48 131.627 19.195 131.627 19.995ZM129.827 19.995C129.827 19.505 129.722 19.07 129.512 18.69C129.312 18.3 129.037 18 128.687 17.79C128.347 17.58 127.967 17.475 127.547 17.475C127.127 17.475 126.742 17.58 126.392 17.79C126.052 18 125.777 18.3 125.567 18.69C125.367 19.07 125.267 19.505 125.267 19.995C125.267 20.485 125.367 20.92 125.567 21.3C125.777 21.68 126.052 21.975 126.392 22.185C126.742 22.395 127.127 22.5 127.547 22.5C127.967 22.5 128.347 22.395 128.687 22.185C129.037 21.975 129.312 21.68 129.512 21.3C129.722 20.92 129.827 20.485 129.827 19.995ZM141.205 22.305C141.345 22.305 141.47 22.375 141.58 22.515C141.7 22.645 141.76 22.82 141.76 23.04C141.76 23.31 141.61 23.54 141.31 23.73C141.02 23.91 140.69 24 140.32 24C139.7 24 139.175 23.87 138.745 23.61C138.325 23.34 138.115 22.775 138.115 21.915V17.775H137.425C137.185 17.775 136.985 17.695 136.825 17.535C136.665 17.375 136.585 17.175 136.585 16.935C136.585 16.705 136.665 16.515 136.825 16.365C136.985 16.205 137.185 16.125 137.425 16.125H138.115V15.165C138.115 14.905 138.2 14.69 138.37 14.52C138.55 14.34 138.77 14.25 139.03 14.25C139.28 14.25 139.49 14.34 139.66 14.52C139.83 14.69 139.915 14.905 139.915 15.165V16.125H140.98C141.22 16.125 141.42 16.205 141.58 16.365C141.74 16.525 141.82 16.725 141.82 16.965C141.82 17.195 141.74 17.39 141.58 17.55C141.42 17.7 141.22 17.775 140.98 17.775H139.915V21.84C139.915 22.05 139.97 22.205 140.08 22.305C140.19 22.395 140.34 22.44 140.53 22.44C140.61 22.44 140.72 22.42 140.86 22.38C140.98 22.33 141.095 22.305 141.205 22.305ZM151.183 19.995C151.183 20.795 151.003 21.515 150.643 22.155C150.283 22.785 149.788 23.275 149.158 23.625C148.538 23.975 147.853 24.15 147.103 24.15C146.343 24.15 145.653 23.975 145.033 23.625C144.413 23.275 143.923 22.785 143.563 22.155C143.203 21.515 143.023 20.795 143.023 19.995C143.023 19.195 143.203 18.48 143.563 17.85C143.923 17.21 144.413 16.715 145.033 16.365C145.653 16.005 146.343 15.825 147.103 15.825C147.853 15.825 148.538 16.005 149.158 16.365C149.788 16.715 150.283 17.21 150.643 17.85C151.003 18.48 151.183 19.195 151.183 19.995ZM149.383 19.995C149.383 19.505 149.278 19.07 149.068 18.69C148.868 18.3 148.593 18 148.243 17.79C147.903 17.58 147.523 17.475 147.103 17.475C146.683 17.475 146.298 17.58 145.948 17.79C145.608 18 145.333 18.3 145.123 18.69C144.923 19.07 144.823 19.505 144.823 19.995C144.823 20.485 144.923 20.92 145.123 21.3C145.333 21.68 145.608 21.975 145.948 22.185C146.298 22.395 146.683 22.5 147.103 22.5C147.523 22.5 147.903 22.395 148.243 22.185C148.593 21.975 148.868 21.68 149.068 21.3C149.278 20.92 149.383 20.485 149.383 19.995ZM147.178 15.465C147.078 15.465 146.968 15.42 146.848 15.33C146.738 15.24 146.688 15.12 146.698 14.97C146.698 14.88 146.728 14.785 146.788 14.685L147.658 13.155C147.758 12.975 147.878 12.83 148.018 12.72C148.158 12.61 148.313 12.555 148.483 12.555C148.753 12.555 148.953 12.625 149.083 12.765C149.223 12.905 149.288 13.085 149.278 13.305C149.258 13.535 149.163 13.75 148.993 13.95L147.853 15.21C147.693 15.38 147.468 15.465 147.178 15.465ZM156.842 15.825C157.532 15.825 158.157 16.005 158.717 16.365C159.277 16.715 159.717 17.205 160.037 17.835C160.367 18.465 160.532 19.18 160.532 19.98C160.532 20.78 160.372 21.5 160.052 22.14C159.732 22.77 159.292 23.265 158.732 23.625C158.182 23.975 157.572 24.15 156.902 24.15C156.422 24.15 155.967 24.055 155.537 23.865C155.117 23.665 154.767 23.425 154.487 23.145V26.085C154.487 26.345 154.402 26.56 154.232 26.73C154.062 26.91 153.847 27 153.587 27C153.327 27 153.112 26.915 152.942 26.745C152.772 26.575 152.687 26.355 152.687 26.085V16.89C152.687 16.63 152.772 16.415 152.942 16.245C153.112 16.065 153.327 15.975 153.587 15.975C153.847 15.975 154.062 16.065 154.232 16.245C154.402 16.415 154.487 16.63 154.487 16.89V16.95C154.727 16.65 155.062 16.39 155.492 16.17C155.922 15.94 156.372 15.825 156.842 15.825ZM156.617 22.5C157.257 22.5 157.782 22.26 158.192 21.78C158.602 21.3 158.807 20.7 158.807 19.98C158.807 19.26 158.602 18.665 158.192 18.195C157.792 17.715 157.267 17.475 156.617 17.475C155.967 17.475 155.437 17.715 155.027 18.195C154.617 18.665 154.412 19.26 154.412 19.98C154.412 20.7 154.617 21.3 155.027 21.78C155.437 22.26 155.967 22.5 156.617 22.5ZM163.727 23.085C163.727 23.345 163.642 23.565 163.472 23.745C163.302 23.915 163.087 24 162.827 24C162.567 24 162.352 23.915 162.182 23.745C162.012 23.565 161.927 23.345 161.927 23.085V16.89C161.927 16.63 162.012 16.415 162.182 16.245C162.352 16.065 162.567 15.975 162.827 15.975C163.087 15.975 163.302 16.065 163.472 16.245C163.642 16.415 163.727 16.63 163.727 16.89V23.085ZM162.812 15C162.472 15 162.232 14.945 162.092 14.835C161.952 14.725 161.882 14.53 161.882 14.25V13.965C161.882 13.685 161.957 13.49 162.107 13.38C162.257 13.27 162.497 13.215 162.827 13.215C163.177 13.215 163.422 13.27 163.562 13.38C163.702 13.49 163.772 13.685 163.772 13.965V14.25C163.772 14.54 163.697 14.74 163.547 14.85C163.407 14.95 163.162 15 162.812 15ZM169.072 15.825C169.922 15.825 170.607 15.96 171.127 16.23C171.647 16.49 171.907 16.84 171.907 17.28C171.907 17.5 171.842 17.695 171.712 17.865C171.582 18.025 171.412 18.105 171.202 18.105C171.042 18.105 170.912 18.085 170.812 18.045C170.712 17.995 170.612 17.935 170.512 17.865C170.422 17.785 170.332 17.72 170.242 17.67C170.142 17.62 169.992 17.575 169.792 17.535C169.602 17.495 169.447 17.475 169.327 17.475C168.577 17.475 167.987 17.71 167.557 18.18C167.137 18.64 166.927 19.245 166.927 19.995C166.927 20.715 167.142 21.315 167.572 21.795C168.002 22.265 168.552 22.5 169.222 22.5C169.712 22.5 170.077 22.44 170.317 22.32C170.377 22.29 170.457 22.24 170.557 22.17C170.667 22.09 170.767 22.03 170.857 21.99C170.947 21.95 171.057 21.93 171.187 21.93C171.437 21.93 171.632 22.01 171.772 22.17C171.922 22.33 171.997 22.535 171.997 22.785C171.997 23.025 171.857 23.25 171.577 23.46C171.297 23.67 170.927 23.84 170.467 23.97C170.007 24.09 169.517 24.15 168.997 24.15C168.227 24.15 167.547 23.97 166.957 23.61C166.377 23.25 165.927 22.755 165.607 22.125C165.287 21.485 165.127 20.775 165.127 19.995C165.127 19.185 165.292 18.465 165.622 17.835C165.962 17.205 166.432 16.715 167.032 16.365C167.632 16.005 168.312 15.825 169.072 15.825ZM181.007 19.995C181.007 20.795 180.827 21.515 180.467 22.155C180.107 22.785 179.612 23.275 178.982 23.625C178.362 23.975 177.677 24.15 176.927 24.15C176.167 24.15 175.477 23.975 174.857 23.625C174.237 23.275 173.747 22.785 173.387 22.155C173.027 21.515 172.847 20.795 172.847 19.995C172.847 19.195 173.027 18.48 173.387 17.85C173.747 17.21 174.237 16.715 174.857 16.365C175.477 16.005 176.167 15.825 176.927 15.825C177.677 15.825 178.362 16.005 178.982 16.365C179.612 16.715 180.107 17.21 180.467 17.85C180.827 18.48 181.007 19.195 181.007 19.995ZM179.207 19.995C179.207 19.505 179.102 19.07 178.892 18.69C178.692 18.3 178.417 18 178.067 17.79C177.727 17.58 177.347 17.475 176.927 17.475C176.507 17.475 176.122 17.58 175.772 17.79C175.432 18 175.157 18.3 174.947 18.69C174.747 19.07 174.647 19.505 174.647 19.995C174.647 20.485 174.747 20.92 174.947 21.3C175.157 21.68 175.432 21.975 175.772 22.185C176.122 22.395 176.507 22.5 176.927 22.5C177.347 22.5 177.727 22.395 178.067 22.185C178.417 21.975 178.692 21.68 178.892 21.3C179.102 20.92 179.207 20.485 179.207 19.995Z" fill="white"/>
<defs>
<filter id="filter0_dd_321_419" x="0.081543" y="0" width="239.145" height="38" filterUnits="userSpaceOnUse" color-interpolation-filters="sRGB">
<feFlood flood-opacity="0" result="BackgroundImageFix"/>
<feColorMatrix in="SourceAlpha" type="matrix" values="0 0 0 0 0 0 0 0 0 0 0 0 0 0 0 0 0 0 127 0" result="hardAlpha"/>
<feOffset dy="2"/>
<feGaussianBlur stdDeviation="1"/>
<feColorMatrix type="matrix" values="0 0 0 0 0 0 0 0 0 0 0 0 0 0 0 0 0 0 0.24 0"/>
<feBlend mode="normal" in2="BackgroundImageFix" result="effect1_dropShadow_321_419"/>
<feColorMatrix in="SourceAlpha" type="matrix" values="0 0 0 0 0 0 0 0 0 0 0 0 0 0 0 0 0 0 127 0" result="hardAlpha"/>
<feOffset/>
<feGaussianBlur stdDeviation="1"/>
<feColorMatrix type="matrix" values="0 0 0 0 0 0 0 0 0 0 0 0 0 0 0 0 0 0 0.12 0"/>
<feBlend mode="normal" in2="effect1_dropShadow_321_419" result="effect2_dropShadow_321_419"/>
<feBlend mode="normal" in="SourceGraphic" in2="effect2_dropShadow_321_419" result="shape"/>
</filter>
<linearGradient id="paint0_linear_321_419" x1="119.654" y1="2" x2="119.654" y2="34" gradientUnits="userSpaceOnUse">
<stop stop-color="#FEB254"/>
<stop offset="1" stop-color="#F0813D"/>
</linearGradient>
</defs>
</svg>
