<?xml version="1.0" standalone="no"?>
<!DOCTYPE svg PUBLIC "-//W3C//DTD SVG 20010904//EN"
 "http://www.w3.org/TR/2001/REC-SVG-20010904/DTD/svg10.dtd">
<svg version="1.0" xmlns="http://www.w3.org/2000/svg"
 width="280.000000pt" height="332.000000pt" viewBox="0 0 280.000000 332.000000"
 preserveAspectRatio="xMidYMid meet">

<g transform="translate(0.000000,332.000000) scale(0.100000,-0.100000)"
fill="#000000" stroke="none">
<path d="M1387 2640 c-58 -18 -117 -66 -117 -94 0 -27 16 -25 51 3 49 40 113
71 149 71 40 0 38 -16 -2 -29 -45 -15 -122 -55 -153 -79 -29 -23 -36 -69 -7
-57 9 4 50 18 90 31 81 25 131 53 149 82 10 17 7 25 -27 56 -44 41 -53 42
-133 16z"/>
<path d="M1184 2575 c-10 -25 2 -91 26 -140 26 -53 45 -75 67 -75 17 0 13 31
-12 85 -8 17 -20 55 -28 85 -14 56 -40 79 -53 45z"/>
<path d="M870 1425 c0 -5 5 -17 10 -25 5 -8 10 -10 10 -5 0 6 -5 17 -10 25 -5
8 -10 11 -10 5z"/>
<path d="M970 1319 c0 -11 -6 -19 -12 -19 -7 0 9 -21 36 -46 38 -34 52 -42 59
-32 6 9 7 8 3 -5 -4 -12 2 -21 19 -29 14 -6 25 -15 25 -19 0 -4 20 -14 44 -22
l44 -15 15 51 c15 55 13 74 -7 58 -9 -8 -19 -5 -34 10 -13 11 -22 15 -22 8 0
-7 -8 -5 -20 6 -11 10 -17 21 -15 26 3 4 1 11 -5 14 -6 4 -9 1 -8 -5 2 -7 -7
-16 -19 -21 -18 -6 -25 -4 -33 12 -8 14 -17 18 -31 14 -23 -8 -25 3 -2 20 15
11 14 13 -10 13 -20 0 -27 -6 -27 -19z m35 -39 c-3 -5 -12 -7 -20 -3 -21 7
-19 13 6 13 11 0 18 -4 14 -10z m187 -92 c-8 -8 -9 -4 -5 13 4 13 8 18 11 10
2 -7 -1 -18 -6 -23z"/>
<path d="M1042 1320 c13 -20 28 -27 28 -12 0 4 -9 13 -20 20 -19 12 -20 11 -8
-8z"/>
<path d="M1160 1295 c0 -7 30 -13 34 -7 3 4 -4 9 -15 9 -10 1 -19 0 -19 -2z"/>
<path d="M1425 1160 c-3 -5 -1 -10 4 -10 6 0 11 5 11 10 0 6 -2 10 -4 10 -3 0
-8 -4 -11 -10z"/>
<path d="M1255 1080 c3 -5 8 -10 11 -10 2 0 4 5 4 10 0 6 -5 10 -11 10 -5 0
-7 -4 -4 -10z"/>
<path d="M2208 803 c23 -2 61 -2 85 0 23 2 4 4 -43 4 -47 0 -66 -2 -42 -4z"/>
<path d="M2560 801 c14 -4 24 -14 22 -21 -4 -16 -9 -72 -11 -108 -1 -13 -5
-21 -11 -17 -5 3 -6 15 -1 28 10 29 -7 113 -20 100 -6 -6 -17 -39 -25 -73 -8
-35 -18 -69 -23 -74 -5 -6 -14 -37 -21 -68 -7 -32 -16 -58 -20 -58 -4 0 -10
-13 -13 -29 -3 -16 -9 -40 -13 -55 -6 -25 -4 -26 34 -26 33 0 41 4 46 23 9 34
7 77 -3 77 -5 0 -8 -14 -6 -30 2 -17 0 -28 -5 -25 -4 3 -6 -4 -3 -15 5 -17 0
-20 -26 -20 -29 0 -31 2 -25 28 4 15 10 29 15 32 4 3 10 22 14 42 4 21 11 36
15 33 4 -3 14 3 21 12 12 15 12 16 -3 10 -13 -4 -18 -1 -18 9 0 10 6 14 15 11
17 -7 32 12 17 22 -8 5 -7 23 4 61 9 30 16 63 17 72 1 9 3 15 6 12 7 -7 10
-144 2 -140 -3 2 -6 -20 -7 -50 0 -39 3 -54 13 -54 7 0 13 7 13 15 0 25 17 17
22 -10 5 -22 2 -25 -26 -27 -17 -1 7 -4 54 -7 l84 -6 9 -37 c9 -37 10 -38 53
-38 49 0 54 11 30 58 -7 15 -19 52 -26 82 -7 30 -16 60 -20 65 -5 6 -15 35
-23 65 -9 30 -22 73 -30 95 l-15 40 -69 2 c-44 1 -59 -1 -43 -6z m79 -143 c31
-107 31 -108 -34 -108 -52 0 -55 1 -55 24 0 14 4 27 9 30 4 3 14 33 21 66 7
33 18 60 25 60 7 0 22 -33 34 -72z"/>
<path d="M2340 776 c0 -15 -7 -26 -17 -29 -14 -4 -12 -5 5 -6 18 -1 22 4 22
29 0 17 -2 30 -5 30 -3 0 -5 -11 -5 -24z"/>
<path d="M2162 675 c0 -16 2 -22 5 -12 2 9 2 23 0 30 -3 6 -5 -1 -5 -18z"/>
<path d="M2162 530 c0 -14 2 -19 5 -12 2 6 2 18 0 25 -3 6 -5 1 -5 -13z"/>
<path d="M2278 453 c53 -3 62 -7 62 -23 0 -11 -9 -20 -22 -23 -20 -4 -19 -4 5
-6 24 -1 27 3 27 29 l0 30 -67 -2 -68 -2 63 -3z"/>
<path d="M2158 403 c7 -3 16 -2 19 1 4 3 -2 6 -13 5 -11 0 -14 -3 -6 -6z"/>
</g>
</svg>
